<svg width="22" height="19" viewBox="0 0 22 19" fill="none" xmlns="http://www.w3.org/2000/svg">
<path d="M11 18C10.2833 18 9.58333 17.8877 8.9 17.663C8.21667 17.4383 7.58333 17.1173 7 16.7V18C7 18.2833 6.904 18.521 6.712 18.713C6.52 18.905 6.28267 19.0007 6 19H1C0.716667 19 0.479333 18.904 0.288 18.712C0.0966666 18.52 0.000666667 18.2827 0 18V15C0 14.4333 0.196 13.9583 0.588 13.575C0.98 13.1917 1.45067 13 2 13H5.275C5.60833 13 5.925 13.0833 6.225 13.25C6.525 13.4167 6.76667 13.6417 6.95 13.925C7.43333 14.575 8.02933 15.0833 8.738 15.45C9.44667 15.8167 10.2007 16 11 16C11.8167 16 12.5793 15.8167 13.288 15.45C13.9967 15.0833 14.584 14.575 15.05 13.925C15.2667 13.6417 15.521 13.4167 15.813 13.25C16.105 13.0833 16.409 13 16.725 13H20C20.5667 13 21.0417 13.1917 21.425 13.575C21.8083 13.9583 22 14.4333 22 15V18C22 18.2833 21.904 18.5207 21.712 18.712C21.52 18.9033 21.2827 18.9993 21 19H16C15.7167 19 15.4793 18.904 15.288 18.712C15.0967 18.52 15.0007 18.2827 15 18V16.725C14.4167 17.1417 13.7873 17.4583 13.112 17.675C12.4367 17.8917 11.7327 18 11 18ZM3 12C2.16667 12 1.45833 11.7083 0.875 11.125C0.291667 10.5417 0 9.83333 0 9C0 8.15 0.291667 7.43767 0.875 6.863C1.45833 6.28833 2.16667 6.00067 3 6C3.85 6 4.56267 6.28767 5.138 6.863C5.71333 7.43833 6.00067 8.15067 6 9C6 9.83333 5.71267 10.5417 5.138 11.125C4.56333 11.7083 3.85067 12 3 12ZM19 12C18.1667 12 17.4583 11.7083 16.875 11.125C16.2917 10.5417 16 9.83333 16 9C16 8.15 16.2917 7.43767 16.875 6.863C17.4583 6.28833 18.1667 6.00067 19 6C19.85 6 20.5627 6.28767 21.138 6.863C21.7133 7.43833 22.0007 8.15067 22 9C22 9.83333 21.7127 10.5417 21.138 11.125C20.5633 11.7083 19.8507 12 19 12ZM11 1.15C11.3167 0.8 11.6917 0.521 12.125 0.313C12.5583 0.105 13.0083 0.000666667 13.475 0C14.325 0 15.0417 0.291667 15.625 0.875C16.2083 1.45833 16.5 2.16667 16.5 3C16.5 3.75 16.2083 4.525 15.625 5.325C15.0417 6.125 13.8167 7.39167 11.95 9.125C11.6833 9.375 11.371 9.5 11.013 9.5C10.655 9.5 10.334 9.375 10.05 9.125C8.18333 7.39167 6.95833 6.125 6.375 5.325C5.79167 4.525 5.5 3.75 5.5 3C5.5 2.16667 5.79167 1.45833 6.375 0.875C6.95833 0.291667 7.675 0 8.525 0C8.99167 0 9.44167 0.104333 9.875 0.313C10.3083 0.521667 10.6833 0.800667 11 1.15Z" fill="white"/>
</svg>
